<?xml version="1.0" encoding="UTF-8"?>
<svg version="1.1" xmlns="http://www.w3.org/2000/svg" width="39" height="143">
<path d="M0 0 C8.91 0 17.82 0 27 0 C28.21939651 2.43879303 28.30409425 4.33499276 28.53785706 7.05709839 C28.63178741 8.12793167 28.72571777 9.19876495 28.82249451 10.30204773 C28.92175735 11.48224991 29.0210202 12.66245209 29.12329102 13.87841797 C29.23072632 15.11764511 29.33816162 16.35687225 29.44885254 17.63365173 C29.74325505 21.04100079 30.03391135 24.44862793 30.32261395 27.856462 C30.56451982 30.7062496 30.8089839 33.55581534 31.053451 36.40538418 C31.63107507 43.13875686 32.20445837 49.87248149 32.77514648 56.60644531 C33.36206129 63.53110678 33.95561539 70.45517553 34.55259758 77.37897575 C35.06589165 83.33467745 35.57518466 89.29071214 36.08130783 95.24702752 C36.383147 98.79890999 36.68639354 102.35065676 36.99341011 105.90209579 C37.33678765 109.8767968 37.67179688 113.85216249 38.00610352 117.82763672 C38.10739059 118.98759659 38.20867767 120.14755646 38.31303406 121.34266663 C38.91296873 128.57944903 39.1173499 135.7393341 39 143 C32.7810677 143.08158034 26.58541163 143.06343291 20.375 142.6875 C19.39273437 142.62949219 18.41046875 142.57148438 17.3984375 142.51171875 C15 142 15 142 13 139 C12.55087852 136.64414883 12.55087852 136.64414883 12.26596069 133.80918884 C12.0977607 132.19654144 12.0977607 132.19654144 11.92616272 130.55131531 C11.81179367 129.37156631 11.69742462 128.19181732 11.57958984 126.97631836 C11.45250137 125.7337326 11.3254129 124.49114685 11.19447327 123.21090698 C10.84745026 119.79993054 10.50798472 116.38836484 10.17213392 112.97628093 C9.81856491 109.39962004 9.4562491 105.82384436 9.09512329 102.24794006 C8.4892641 96.23527899 7.89002828 90.22198626 7.29492188 84.20825195 C6.60873044 77.27467629 5.91321793 70.34208655 5.21237218 63.40997785 C4.53697674 56.72827126 3.86729162 50.046005 3.20048904 43.36343575 C2.91746421 40.52741331 2.63265882 37.69157827 2.34641647 34.85587883 C1.94557566 30.8809725 1.55318001 26.90527476 1.16162109 22.92944336 C1.04320358 21.76386398 0.92478607 20.59828461 0.80278015 19.39738464 C0.69628647 18.30254761 0.58979279 17.20771057 0.48007202 16.07969666 C0.38680319 15.14152068 0.29353436 14.20334471 0.19743919 13.23673916 C-0.0712358 8.83218887 0 4.41273719 0 0 Z " fill="#4371C3" transform="translate(0,0)"/>
</svg>
